PathFileType	3	(X/Y/Z)	RCH0000002 BBF 07.c3d
DataRate	CameraRate	NumFrames	NumMarkers	Units	OrigDataRate	OrigDataStartFrame	OrigNumFrames
100.0	100.0	13	23	mm	100.0	154	452
Frame#	Time	T2			T10			MAN			LASI			RASI			RPSI			LPAT			LKNE			LANK			LMED			LHEE			LTOE			RPAT			RKNE			RANK			RMED			RHEE			RTOE			LPSI			RTHI			LTHI			RTIB			LTIB			
		X1	Y1	Z1	X2	Y2	Z2	X3	Y3	Z3	X4	Y4	Z4	X5	Y5	Z5	X6	Y6	Z6	X7	Y7	Z7	X8	Y8	Z8	X9	Y9	Z9	X10	Y10	Z10	X11	Y11	Z11	X12	Y12	Z12	X13	Y13	Z13	X14	Y14	Z14	X15	Y15	Z15	X16	Y16	Z16	X17	Y17	Z17	X18	Y18	Z18	X19	Y19	Z19	X20	Y20	Z20	X21	Y21	Z21	X22	Y22	Z22	X23	Y23	Z23	

154	1.530	-1277.97734	-55.21438	976.70825	-1244.47648	-81.14144	790.16880	-1150.07107	-26.10436	952.55387	-1161.01152	14.19762	652.23964	-1143.80243	-161.71594	644.37745	-1255.41719	-120.59337	703.35612	-1148.93174	-31.39834	385.82199	-1188.81963	28.14080	344.09976	-1239.99542	29.42167	72.35567	-1241.99748	-39.19915	91.64854	-1281.96038	-7.11546	104.18316	-1193.12000	-10.13437	69.26253	-1145.50949	-109.64052	348.50961	-1202.77318	-160.48684	328.83076	-1396.24103	-176.69922	140.41566	-1398.99359	-107.94276	153.87604	-1408.93370	-145.76637	194.08846	-1378.02394	-138.80215	98.36624	-1262.96682	-49.00325	705.99000	-1176.17449	-232.10518	435.93736	-1196.04106	99.39159	468.04554	-1281.95834	-233.02322	253.43645	-1208.63850	92.41161	228.29317	
155	1.540	-1267.20083	-56.83637	980.17444	-1235.47171	-81.42166	793.30032	-1139.53141	-27.32523	955.41718	-1154.04997	15.71877	654.45851	-1133.15997	-159.76527	647.23806	-1245.80066	-120.83736	705.77981	-1146.90255	-30.27703	386.41495	-1188.34374	28.75504	345.31024	-1240.39716	28.02976	73.68322	-1240.72864	-40.45463	92.91967	-1281.44491	-9.29751	105.74538	-1192.72810	-10.59055	70.00844	-1124.63019	-107.45601	353.98131	-1180.88480	-159.07432	332.26194	-1371.78828	-177.70069	142.14446	-1375.31122	-108.78410	155.03712	-1386.17455	-146.42895	195.14374	-1351.87966	-140.13705	100.87045	-1254.49473	-49.50185	708.44199	-1157.76995	-230.81177	440.02919	-1193.75884	99.94072	469.42750	-1258.42420	-232.53788	256.68750	-1210.48192	92.30148	229.35360	
156	1.550	-1256.46790	-58.20559	983.35576	-1226.67304	-81.56447	796.12114	-1128.99632	-28.47423	957.90738	-1147.24653	17.11753	656.36248	-1122.70055	-157.84971	649.91058	-1236.34858	-121.09493	707.84221	-1144.51501	-29.29416	386.87064	-1187.46625	29.15802	346.38884	-1240.66834	26.70798	74.97392	-1239.35761	-41.65517	94.13582	-1280.75850	-11.39485	107.29629	-1192.25108	-11.01911	70.67697	-1103.76471	-105.42445	359.77532	-1158.91859	-157.75286	335.98077	-1346.62222	-178.67174	143.52279	-1350.92700	-109.62392	155.84430	-1362.80830	-147.10302	195.79497	-1324.95919	-141.41713	103.14715	-1246.18753	-50.06381	710.45165	-1139.51956	-229.61030	444.33976	-1191.36445	100.27910	470.63921	-1234.61713	-232.08209	259.94660	-1211.91921	92.04870	230.40601	
157	1.560	-1245.75969	-59.30565	986.17467	-1218.03152	-81.63170	798.57491	-1118.44278	-29.54042	959.94567	-1140.58359	18.39703	657.94682	-1112.38917	-155.97595	652.28027	-1227.03581	-121.43022	709.47697	-1141.76498	-28.33925	387.15734	-1186.19155	29.46730	347.31950	-1240.78591	25.58398	76.18735	-1237.92427	-42.67078	95.28549	-1279.91464	-13.23338	108.80556	-1191.69818	-11.33162	71.25110	-1082.95095	-103.56102	365.78898	-1136.90303	-156.52451	339.90671	-1320.81096	-179.58758	144.56402	-1325.88539	-110.43499	156.30066	-1338.85435	-147.76255	196.04855	-1297.38090	-142.61776	105.18994	-1238.03177	-50.74975	711.99540	-1121.40324	-228.49172	448.77054	-1188.85712	100.48807	471.69099	-1210.58696	-231.64957	263.16715	-1212.87928	91.78500	231.41319	
158	1.570	-1235.05742	-60.14300	988.57554	-1209.50084	-81.68259	800.62478	-1107.85177	-30.52343	961.47690	-1134.03386	19.56047	659.21900	-1102.19909	-154.15328	654.25832	-1217.83908	-121.88943	710.63928	-1138.67863	-27.33503	387.25307	-1184.54630	29.77884	348.09407	-1240.74204	24.74640	77.29034	-1236.46979	-43.41002	96.35707	-1278.93896	-14.68921	110.24445	-1191.08229	-11.46607	71.71971	-1062.24442	-101.86542	371.93324	-1114.88227	-155.38122	343.96985	-1294.41075	-180.42776	145.28511	-1300.22595	-111.19356	156.41468	-1314.33661	-148.38655	195.91136	-1269.23709	-143.71649	107.00101	-1230.00677	-51.60032	713.06926	-1103.41168	-227.43929	453.23597	-1186.22605	100.63656	472.59606	-1186.38471	-231.23235	266.31454	-1213.33228	91.61632	232.34219	
159	1.580	-1224.34309	-60.74449	990.52419	-1201.03718	-81.77016	802.25212	-1097.20858	-31.43242	962.47067	-1127.55774	20.60950	660.19587	-1092.11086	-152.39527	655.78402	-1208.73596	-122.49910	711.30592	-1135.30224	-26.24110	387.14671	-1182.57010	30.16014	348.71206	-1240.54471	24.24034	78.25979	-1235.03362	-43.82462	97.34072	-1277.86587	-15.69551	111.58986	-1190.41984	-11.38998	72.07796	-1041.72171	-100.32274	378.13009	-1092.92095	-154.30534	348.10851	-1267.46418	-181.17570	145.69864	-1273.98497	-111.88030	156.19370	-1289.28184	-148.96083	195.38380	-1240.59556	-144.69077	108.58349	-1222.08306	-52.63425	713.68669	-1085.55523	-226.43127	457.66135	-1183.44670	100.77689	473.36775	-1162.06208	-230.82013	269.35996	-1213.28606	91.61463	233.16692	
160	1.590	-1213.60011	-61.15360	992.00608	-1192.59890	-81.93849	803.45424	-1086.50257	-32.28442	962.92070	-1121.10243	21.54347	660.90063	-1082.11003	-150.72024	656.82447	-1199.70350	-123.26638	711.47387	-1131.69056	-25.05106	386.83793	-1180.30617	30.64855	349.18004	-1240.21504	24.06939	79.08439	-1233.65017	-43.90765	98.23043	-1276.73351	-16.24069	112.82759	-1189.72954	-11.09923	72.32722	-1021.48134	-98.90493	384.30737	-1071.10676	-153.27056	352.26474	-1240.00170	-181.81724	145.80662	-1247.19980	-112.48036	155.63822	-1263.71963	-149.47866	194.45462	-1211.50585	-145.51529	109.93475	-1214.22204	-53.84879	713.87530	-1067.86888	-225.44364	461.97832	-1180.48044	100.94394	474.01782	-1137.67112	-230.39928	272.27312	-1212.77790	91.81583	233.87028	
161	1.600	-1202.81373	-61.42590	993.02356	-1184.14591	-82.22108	804.24146	-1075.72677	-33.10228	962.84290	-1114.60267	22.35960	661.35992	-1072.18402	-149.15040	657.37231	-1190.71679	-124.18111	711.15762	-1127.89517	-23.78533	386.33585	-1177.79274	31.25406	349.51029	-1239.78234	24.20310	79.76512	-1232.34551	-43.68672	99.02573	-1275.57824	-16.35955	113.95444	-1189.03027	-10.61347	72.47446	-1001.64167	-97.57264	390.39208	-1049.54990	-152.24364	356.37849	-1212.04746	-182.33873	145.59697	-1219.91581	-112.98282	154.73812	-1237.68521	-149.94032	193.09859	-1182.00985	-146.15990	111.04150	-1206.37658	-55.22222	713.67289	-1050.41226	-224.45222	466.11922	-1177.27688	101.15671	474.55539	-1113.26486	-229.95173	275.01524	-1211.86318	92.22275	234.44537	
162	1.610	-1191.97154	-61.62424	993.59235	-1175.63906	-82.63997	804.63368	-1064.87720	-33.91255	962.27219	-1107.98307	23.05412	661.60093	-1062.31857	-147.70993	657.44168	-1181.74750	-125.21904	710.38586	-1123.95404	-22.48161	385.65660	-1175.05539	31.96485	349.71882	-1239.27792	24.58767	80.31479	-1231.13476	-43.21391	99.73288	-1274.42915	-16.11974	114.97918	-1188.33855	-9.96938	72.53142	-982.33571	-96.27745	396.30330	-1028.37963	-151.18669	360.38169	-1183.62973	-182.72527	145.04286	-1192.19581	-113.37956	153.47116	-1211.22562	-150.35145	191.27740	-1152.15590	-146.58883	111.87737	-1198.49248	-56.71778	713.12305	-1033.26450	-223.43413	470.01183	-1173.77714	101.42151	474.98639	-1088.89952	-229.45436	277.53362	-1210.60226	92.81192	234.89559	
163	1.620	-1181.06365	-61.81410	993.73788	-1167.03952	-83.20584	804.65686	-1053.95212	-34.74342	961.25853	-1101.16169	23.62385	661.64875	-1052.49462	-146.42220	657.06320	-1172.76269	-126.34580	709.19754	-1119.88310	-21.18524	384.82015	-1172.10065	32.75431	349.82273	-1238.72872	25.15775	80.75677	-1230.02033	-42.55451	100.36509	-1273.30358	-15.60642	115.92233	-1187.66608	-9.21325	72.51334	-963.70291	-94.96465	401.94617	-1007.73771	-150.06013	364.19330	-1154.79552	-182.95957	144.10504	-1164.13099	-113.66385	151.80415	-1184.40931	-150.72051	188.94374	-1122.01517	-146.76188	112.40301	-1190.51040	-58.28847	712.27082	-1016.51476	-222.36848	473.57586	-1169.91702	101.73572	475.31301	-1064.63853	-228.87915	279.75892	-1209.04754	93.54238	235.23332	
164	1.630	-1170.08303	-62.05936	993.49146	-1158.30845	-83.91840	804.33966	-1042.95132	-35.62282	959.86245	-1094.05442	24.06806	661.52395	-1042.68598	-145.30678	656.27853	-1163.72415	-127.52108	707.63819	-1115.67046	-19.94102	383.84664	-1168.91099	33.58785	349.83695	-1238.15176	25.84722	81.12321	-1228.99124	-41.77659	100.94201	-1272.20369	-14.90778	116.81503	-1187.01754	-8.39393	72.43779	-945.87867	-93.57655	407.20821	-987.76958	-148.82625	367.71664	-1125.62799	-183.02193	142.73643	-1135.85219	-113.82901	149.69655	-1157.33803	-151.05572	186.04808	-1091.69854	-146.63778	112.56867	-1182.36820	-59.88203	711.15897	-1000.25023	-221.23650	476.72222	-1165.62935	102.09127	475.53288	-1040.55845	-228.19443	281.60596	-1207.23200	94.36460	235.47753	
165	1.640	-1159.02552	-62.41870	992.88695	-1149.40683	-84.76735	803.71044	-1031.87548	-36.57686	958.15058	-1086.57976	24.39017	661.24039	-1032.85830	-144.37664	655.13534	-1154.58853	-128.70235	705.75662	-1111.27346	-18.78740	382.75250	-1165.44185	34.42865	349.77066	-1237.55001	26.59753	81.45294	-1228.02338	-40.94251	101.48848	-1271.11457	-14.10338	117.69721	-1186.38912	-7.55740	72.32320	-928.98238	-92.05689	411.95932	-968.61408	-147.45313	370.83983	-1096.26446	-182.89164	140.88851	-1107.53981	-113.86738	147.10644	-1130.15930	-151.36195	182.54743	-1061.37175	-146.17964	112.31912	-1174.00348	-61.44545	709.82503	-984.54383	-220.02162	479.35563	-1160.84558	102.47747	475.63784	-1016.75580	-227.36752	282.97810	-1205.16068	95.22817	235.65016	
166	1.650	-1147.88990	-62.94272	991.95784	-1140.29579	-85.73324	802.79510	-1020.72572	-37.62856	956.19130	-1078.66362	24.59883	660.80351	-1022.96966	-143.63610	653.68313	-1145.30845	-129.84806	703.60259	-1106.61865	-17.75338	381.54670	-1161.62103	35.24172	349.62350	-1236.91002	27.36268	81.78895	-1227.08046	-40.10349	102.03261	-1270.00343	-13.25652	118.61498	-1185.76779	-6.74318	72.18765	-913.10556	-90.35611	416.05606	-950.39287	-145.91874	373.44004	-1066.91191	-182.54991	138.51870	-1079.43059	-113.77030	143.99828	-1103.07703	-151.63819	178.41503	-1031.26644	-145.36180	111.60033	-1165.35631	-62.92856	708.29945	-969.44390	-218.70997	481.38025	-1155.49698	102.88267	475.61239	-993.35367	-226.36847	283.77500	-1202.80575	96.08740	235.77192	
